trial_1
version=1
nRows=8
nColumns=49
inDegrees=yes
endheader
time	/jointset/bb/crank_angle/value	/jointset/bb/crank_angle/speed	/jointset/spindle/pedal_angle_r/value	/jointset/spindle/pedal_angle_r/speed	/jointset/ground_pelvis/pelvis_tilt/value	/jointset/ground_pelvis/pelvis_tilt/speed	/jointset/ground_pelvis/pelvis_list/value	/jointset/ground_pelvis/pelvis_list/speed	/jointset/ground_pelvis/pelvis_rotation/value	/jointset/ground_pelvis/pelvis_rotation/speed	/jointset/ground_pelvis/pelvis_tx/value	/jointset/ground_pelvis/pelvis_tx/speed	/jointset/ground_pelvis/pelvis_ty/value	/jointset/ground_pelvis/pelvis_ty/speed	/jointset/ground_pelvis/pelvis_tz/value	/jointset/ground_pelvis/pelvis_tz/speed	/jointset/hip_r/hip_angle_r/value	/jointset/hip_r/hip_angle_r/speed	/jointset/hip_r/hip_adduction_r/value	/jointset/hip_r/hip_adduction_r/speed	/jointset/hip_r/hip_rotation_r/value	/jointset/hip_r/hip_rotation_r/speed	/jointset/knee_r/knee_angle_r/value	/jointset/knee_r/knee_angle_r/speed	/jointset/knee_r/tib_tx_r/value	/jointset/knee_r/tib_tx_r/speed	/jointset/knee_r/tib_ty_r/value	/jointset/knee_r/tib_ty_r/speed	/jointset/tib_pat_r/pat_angle_r/value	/jointset/tib_pat_r/pat_angle_r/speed	/jointset/tib_pat_r/pat_tx_r/value	/jointset/tib_pat_r/pat_tx_r/speed	/jointset/tib_pat_r/pat_ty_r/value	/jointset/tib_pat_r/pat_ty_r/speed	/jointset/ankle_r/ankle_angle_r/value	/jointset/ankle_r/ankle_angle_r/speed	/jointset/subtalar_r/subtalar_angle_r/value	/jointset/subtalar_r/subtalar_angle_r/speed	/jointset/mtp_r/mtp_angle_r/value	/jointset/mtp_r/mtp_angle_r/speed	/forceset/bifemlh_r/activation	/forceset/bifemlh_r/fiber_length	/forceset/bifemsh_r/activation	/forceset/bifemsh_r/fiber_length	/forceset/glut_max2_r/activation	/forceset/glut_max2_r/fiber_length	/forceset/vas_int_r/activation	/forceset/vas_int_r/fiber_length
      0.78354247	   -421.10036626	   -479.99997653	    427.37939230	    570.24885719	      0.00000000	      0.00000000	     -0.00000000	      0.00000000	     -0.00000000	     -0.00000000	     -0.10000000	      0.00000000	     -0.05000000	      0.00000000	      0.00000000	      0.00000000	     75.93805643	   -151.00543940	      4.28184166	      1.79326280	     -1.72454871	     21.56288596	    -91.98283799	    271.84994431	      0.00354295	      0.04066944	     -0.48662394	      0.09431694	     17.57382456	     -1.01493968	      0.03199432	      0.10594319	     -0.02277686	      0.01120040	     22.85314140	    -31.99179071	     -0.00000000	     -0.00000000	     -0.00000000	      0.00000000	     -0.07543898	      0.13883624	     -0.07543898	      0.15088678	     -0.07543898	      0.15313756	     -0.07543898	      0.14937975
      0.78456278	   -421.59011374	   -479.99997653	    427.96109534	    570.00231751	      0.00000000	      0.00000000	     -0.00000000	      0.00000000	     -0.00000000	     -0.00000000	     -0.10000000	      0.00000000	     -0.05000000	      0.00000000	      0.00000000	      0.00000000	     75.78335256	   -152.24222021	      4.28366546	      1.78169280	     -1.70254234	     21.57380881	    -91.70516320	    272.44471750	      0.00358421	      0.04020129	     -0.48652760	      0.09452378	     17.57279371	     -1.00562705	      0.03210239	      0.10589255	     -0.02276550	      0.01106055	     22.82070476	    -31.58998005	     -0.00000000	     -0.00000000	     -0.00000000	      0.00000000	     -0.07557034	      0.13879905	     -0.07557034	      0.15098733	     -0.07557034	      0.15306850	     -0.07557034	      0.14920127
      0.78558308	   -422.07986121	   -479.99997653	    428.54254831	    569.75867679	      0.00000000	      0.00000000	     -0.00000000	      0.00000000	     -0.00000000	     -0.00000000	     -0.10000000	      0.00000000	     -0.05000000	      0.00000000	      0.00000000	      0.00000000	     75.62739262	   -153.46759207	      4.28547734	      1.76992653	     -1.68052498	     21.58442028	    -91.42688687	    273.02906902	      0.00362499	      0.03972931	     -0.48643106	      0.09472528	     17.57177268	     -0.99569307	      0.03221040	      0.10583699	     -0.02275429	      0.01091822	     22.78867909	    -31.18619927	     -0.00000000	     -0.00000000	     -0.00000000	      0.00000000	     -0.07570171	      0.13876148	     -0.07570171	      0.15108880	     -0.07570171	      0.15299862	     -0.07570171	      0.14907742
      0.78681305	   -422.67024748	   -479.99997653	    429.24315652	    569.46879461	      0.00000000	      0.00000000	     -0.00000000	      0.00000000	     -0.00000000	     -0.00000000	     -0.10000000	      0.00000000	     -0.05000000	      0.00000000	      0.00000000	      0.00000000	     75.43773104	   -154.92960539	      4.28764545	      1.75548589	     -1.65396910	     21.59681691	    -91.09064265	    273.71968898	      0.00367350	      0.03915540	     -0.48631440	      0.09496108	     17.57055579	     -0.98288503	      0.03234054	      0.10576356	     -0.02274097	      0.01074337	     22.75062159	    -30.69689565	     -0.00000000	     -0.00000000	     -0.00000000	      0.00000000	     -0.07586006	      0.13871570	     -0.07586006	      0.15121223	     -0.07586006	      0.15291330	     -0.07586006	      0.14880521
      0.78804303	   -423.26063375	   -479.99997653	    429.94341074	    569.18305833	      0.00000000	      0.00000000	     -0.00000000	      0.00000000	     -0.00000000	     -0.00000000	     -0.10000000	      0.00000000	     -0.05000000	      0.00000000	      0.00000000	      0.00000000	     75.24628142	   -156.37505150	      4.28979563	      1.74076999	     -1.62739822	     21.60880238	    -90.75355824	    274.39526006	      0.00372131	      0.03857625	     -0.48619746	      0.09518910	     17.56935521	     -0.96915917	      0.03247057	      0.10568318	     -0.02272786	      0.01056495	     22.71316759	    -30.20488353	     -0.00000000	      0.00000000	     -0.00000000	      0.00000000	     -0.07601842	      0.13866937	     -0.07601842	      0.15133773	     -0.07601842	      0.15282680	     -0.07601842	      0.14871185
      0.78906166	   -423.74957720	   -479.99997653	    430.52307977	    568.94952977	      0.00000000	      0.00000000	     -0.00000000	      0.00000000	     -0.00000000	     -0.00000000	     -0.10000000	      0.00000000	     -0.05000000	      0.00000000	      0.00000000	      0.00000000	     75.08638848	   -157.55959931	      4.29156254	      1.72837811	     -1.60538187	     21.61843279	    -90.47377033	    274.94339440	      0.00376036	      0.03809276	     -0.48610041	      0.09537203	     17.56837409	     -0.95709145	      0.03257819	      0.10561142	     -0.02271718	      0.01041451	     22.68260832	    -29.79541830	     -0.00000000	      0.00000000	     -0.00000000	      0.00000000	     -0.07614957	      0.13863060	     -0.07614957	      0.15144083	     -0.07614957	      0.15275426	     -0.07614957	      0.14851584
      0.79008029	   -424.23852065	   -479.99997653	    431.10251236	    568.71879613	      0.00000000	      0.00000000	     -0.00000000	      0.00000000	     -0.00000000	     -0.00000000	     -0.10000000	      0.00000000	     -0.05000000	      0.00000000	      0.00000000	      0.00000000	     74.92529470	   -158.73279640	      4.29331673	      1.71580419	     -1.58335584	     21.62780827	    -90.19342931	    275.48126780	      0.00379891	      0.03760588	     -0.48600317	      0.09554960	     17.56740558	     -0.94438478	      0.03268573	      0.10553504	     -0.02270665	      0.01026164	     22.65246704	    -29.38419502	     -0.00000000	      0.00000000	     -0.00000000	      0.00000000	     -0.07628072	      0.13859147	     -0.07628072	      0.15154891	     -0.07628072	      0.15268090	     -0.07628072	      0.14840135
      0.79134156	   -424.84392791	   -479.99997653	    431.81963939	    568.43694134	      0.00000000	      0.00000000	     -0.00000000	      0.00000000	     -0.00000000	     -0.00000000	     -0.10000000	      0.00000000	     -0.05000000	      0.00000000	      0.00000000	      0.00000000	     74.72418255	   -160.16972487	      4.29547087	      1.69998755	     -1.55607029	     21.63908138	    -89.84556167	    276.13308008	      0.00384596	      0.03699850	     -0.48588252	      0.09576202	     17.56622484	     -0.92776012	      0.03281878	      0.10543413	     -0.02269383	      0.01006870	     22.61572811	    -28.87264874	     -0.00000000	      0.00000000	     -0.00000000	      0.00000000	     -0.07644311	      0.13854251	     -0.07644311	      0.15167258	     -0.07644311	      0.15258895	     -0.07644311	      0.14813482
